# xmcd CD database file
#
# Track frame offsets:
#	150
#	21856
#	49566
#	78932
#	117383
#	145542
#
# Disc length: 2248 seconds
#
# Revision: 0
# Processed by: cddbd v1.5.2PL0 Copyright (c) Steve Scherf et al.
# Submitted via: CDex 1.51
#
DISCID=4108c606
DTITLE=Albert Collins and The Icebreakers - Live At Rockpalast Dortmund 1980  CD 1
DYEAR=1980
DGENRE=Blues
TTITLE0=Sweet Home Chicago
TTITLE1=She`s Fine
TTITLE2=Listen Here!
TTITLE3=Cold Cold Feeling
TTITLE4=Skatin' - Ice Pick
TTITLE5=Brick
EXTD=YEAR: 1980
EXTT0=
EXTT1=
EXTT2=
EXTT3=
EXTT4=
EXTT5=
PLAYORDER=
